<mxfile host="app.diagrams.net" agent="Mozilla/5.0 (Windows NT 10.0; Win64; x64) AppleWebKit/537.36 (KHTML, like Gecko) Chrome/131.0.0.0 Safari/537.36" version="24.8.6">
  <diagram name="페이지-1" id="bcHO65XOOoUZe4D-gK99">
    <mxGraphModel dx="1440" dy="2071" grid="1" gridSize="10" guides="1" tooltips="1" connect="1" arrows="1" fold="1" page="1" pageScale="1" pageWidth="827" pageHeight="1169" math="0" shadow="0">
      <root>
        <mxCell id="0" />
        <mxCell id="1" parent="0" />
        <mxCell id="u6D7_SuUnIVDdeKVQkes-16" style="edgeStyle=orthogonalEdgeStyle;rounded=0;orthogonalLoop=1;jettySize=auto;html=1;entryX=0;entryY=0.5;entryDx=0;entryDy=0;" edge="1" parent="1" source="u6D7_SuUnIVDdeKVQkes-1" target="u6D7_SuUnIVDdeKVQkes-3">
          <mxGeometry relative="1" as="geometry" />
        </mxCell>
        <mxCell id="u6D7_SuUnIVDdeKVQkes-18" style="edgeStyle=orthogonalEdgeStyle;rounded=0;orthogonalLoop=1;jettySize=auto;html=1;" edge="1" parent="1" source="u6D7_SuUnIVDdeKVQkes-1" target="u6D7_SuUnIVDdeKVQkes-4">
          <mxGeometry relative="1" as="geometry" />
        </mxCell>
        <mxCell id="u6D7_SuUnIVDdeKVQkes-19" style="edgeStyle=orthogonalEdgeStyle;rounded=0;orthogonalLoop=1;jettySize=auto;html=1;entryX=0;entryY=0.5;entryDx=0;entryDy=0;" edge="1" parent="1" source="u6D7_SuUnIVDdeKVQkes-1" target="u6D7_SuUnIVDdeKVQkes-8">
          <mxGeometry relative="1" as="geometry" />
        </mxCell>
        <mxCell id="u6D7_SuUnIVDdeKVQkes-20" style="edgeStyle=orthogonalEdgeStyle;rounded=0;orthogonalLoop=1;jettySize=auto;html=1;entryX=0;entryY=0.5;entryDx=0;entryDy=0;" edge="1" parent="1" source="u6D7_SuUnIVDdeKVQkes-1" target="u6D7_SuUnIVDdeKVQkes-9">
          <mxGeometry relative="1" as="geometry" />
        </mxCell>
        <mxCell id="u6D7_SuUnIVDdeKVQkes-1" value="사용자" style="shape=umlActor;verticalLabelPosition=bottom;verticalAlign=top;html=1;outlineConnect=0;" vertex="1" parent="1">
          <mxGeometry x="100" y="300" width="30" height="60" as="geometry" />
        </mxCell>
        <mxCell id="u6D7_SuUnIVDdeKVQkes-28" style="edgeStyle=orthogonalEdgeStyle;rounded=0;orthogonalLoop=1;jettySize=auto;html=1;entryX=0;entryY=0.5;entryDx=0;entryDy=0;" edge="1" parent="1" source="u6D7_SuUnIVDdeKVQkes-3" target="u6D7_SuUnIVDdeKVQkes-24">
          <mxGeometry relative="1" as="geometry" />
        </mxCell>
        <mxCell id="u6D7_SuUnIVDdeKVQkes-29" style="edgeStyle=orthogonalEdgeStyle;rounded=0;orthogonalLoop=1;jettySize=auto;html=1;entryX=0;entryY=0.5;entryDx=0;entryDy=0;" edge="1" parent="1" source="u6D7_SuUnIVDdeKVQkes-3" target="u6D7_SuUnIVDdeKVQkes-25">
          <mxGeometry relative="1" as="geometry" />
        </mxCell>
        <mxCell id="u6D7_SuUnIVDdeKVQkes-30" style="edgeStyle=orthogonalEdgeStyle;rounded=0;orthogonalLoop=1;jettySize=auto;html=1;entryX=0;entryY=0.5;entryDx=0;entryDy=0;" edge="1" parent="1" source="u6D7_SuUnIVDdeKVQkes-3" target="u6D7_SuUnIVDdeKVQkes-26">
          <mxGeometry relative="1" as="geometry">
            <mxPoint x="680" y="180" as="targetPoint" />
          </mxGeometry>
        </mxCell>
        <mxCell id="u6D7_SuUnIVDdeKVQkes-123" style="edgeStyle=orthogonalEdgeStyle;rounded=0;orthogonalLoop=1;jettySize=auto;html=1;entryX=0;entryY=0.5;entryDx=0;entryDy=0;" edge="1" parent="1" source="u6D7_SuUnIVDdeKVQkes-3" target="u6D7_SuUnIVDdeKVQkes-27">
          <mxGeometry relative="1" as="geometry" />
        </mxCell>
        <mxCell id="u6D7_SuUnIVDdeKVQkes-3" value="여행지 검색" style="ellipse;whiteSpace=wrap;html=1;" vertex="1" parent="1">
          <mxGeometry x="260" y="196" width="170" height="50" as="geometry" />
        </mxCell>
        <mxCell id="u6D7_SuUnIVDdeKVQkes-4" value="여행 코스 작성" style="ellipse;whiteSpace=wrap;html=1;" vertex="1" parent="1">
          <mxGeometry x="260" y="269" width="170" height="50" as="geometry" />
        </mxCell>
        <mxCell id="u6D7_SuUnIVDdeKVQkes-7" value="&lt;b&gt;&lt;font style=&quot;font-size: 18px;&quot;&gt;메인화면 Usecase&lt;/font&gt;&lt;/b&gt;" style="text;html=1;align=center;verticalAlign=middle;whiteSpace=wrap;rounded=0;" vertex="1" parent="1">
          <mxGeometry x="52.5" y="100" width="247.5" height="30" as="geometry" />
        </mxCell>
        <mxCell id="u6D7_SuUnIVDdeKVQkes-8" value="마이페이지" style="ellipse;whiteSpace=wrap;html=1;" vertex="1" parent="1">
          <mxGeometry x="260" y="342" width="170" height="50" as="geometry" />
        </mxCell>
        <mxCell id="u6D7_SuUnIVDdeKVQkes-9" value="게시판" style="ellipse;whiteSpace=wrap;html=1;" vertex="1" parent="1">
          <mxGeometry x="260" y="414" width="170" height="50" as="geometry" />
        </mxCell>
        <mxCell id="u6D7_SuUnIVDdeKVQkes-24" value="지역별 검색" style="ellipse;whiteSpace=wrap;html=1;" vertex="1" parent="1">
          <mxGeometry x="530" y="196" width="170" height="50" as="geometry" />
        </mxCell>
        <mxCell id="u6D7_SuUnIVDdeKVQkes-25" value="테마별 검색" style="ellipse;whiteSpace=wrap;html=1;" vertex="1" parent="1">
          <mxGeometry x="530" y="266" width="170" height="50" as="geometry" />
        </mxCell>
        <mxCell id="u6D7_SuUnIVDdeKVQkes-26" value="음식점 검색" style="ellipse;whiteSpace=wrap;html=1;" vertex="1" parent="1">
          <mxGeometry x="530" y="336" width="170" height="50" as="geometry" />
        </mxCell>
        <mxCell id="u6D7_SuUnIVDdeKVQkes-27" value="즐겨찾기 등록" style="ellipse;whiteSpace=wrap;html=1;" vertex="1" parent="1">
          <mxGeometry x="530" y="409" width="170" height="50" as="geometry" />
        </mxCell>
        <mxCell id="u6D7_SuUnIVDdeKVQkes-78" value="&lt;b&gt;&lt;font style=&quot;font-size: 18px;&quot;&gt;게시판 Usecase&lt;/font&gt;&lt;/b&gt;" style="text;html=1;align=center;verticalAlign=middle;whiteSpace=wrap;rounded=0;" vertex="1" parent="1">
          <mxGeometry x="900" y="710" width="247.5" height="30" as="geometry" />
        </mxCell>
        <mxCell id="u6D7_SuUnIVDdeKVQkes-112" style="edgeStyle=orthogonalEdgeStyle;rounded=0;orthogonalLoop=1;jettySize=auto;html=1;entryX=0;entryY=0.5;entryDx=0;entryDy=0;" edge="1" parent="1" source="u6D7_SuUnIVDdeKVQkes-79" target="u6D7_SuUnIVDdeKVQkes-80">
          <mxGeometry relative="1" as="geometry" />
        </mxCell>
        <mxCell id="u6D7_SuUnIVDdeKVQkes-113" style="edgeStyle=orthogonalEdgeStyle;rounded=0;orthogonalLoop=1;jettySize=auto;html=1;entryX=0;entryY=0.5;entryDx=0;entryDy=0;" edge="1" parent="1" source="u6D7_SuUnIVDdeKVQkes-79" target="u6D7_SuUnIVDdeKVQkes-97">
          <mxGeometry relative="1" as="geometry" />
        </mxCell>
        <mxCell id="u6D7_SuUnIVDdeKVQkes-79" value="사용자" style="shape=umlActor;verticalLabelPosition=bottom;verticalAlign=top;html=1;outlineConnect=0;" vertex="1" parent="1">
          <mxGeometry x="967.5" y="816.5" width="30" height="60" as="geometry" />
        </mxCell>
        <mxCell id="u6D7_SuUnIVDdeKVQkes-107" style="edgeStyle=orthogonalEdgeStyle;rounded=0;orthogonalLoop=1;jettySize=auto;html=1;entryX=0;entryY=0.5;entryDx=0;entryDy=0;" edge="1" parent="1" source="u6D7_SuUnIVDdeKVQkes-80" target="u6D7_SuUnIVDdeKVQkes-98">
          <mxGeometry relative="1" as="geometry" />
        </mxCell>
        <mxCell id="u6D7_SuUnIVDdeKVQkes-108" style="edgeStyle=orthogonalEdgeStyle;rounded=0;orthogonalLoop=1;jettySize=auto;html=1;entryX=0;entryY=0.5;entryDx=0;entryDy=0;" edge="1" parent="1" source="u6D7_SuUnIVDdeKVQkes-80" target="u6D7_SuUnIVDdeKVQkes-102">
          <mxGeometry relative="1" as="geometry" />
        </mxCell>
        <mxCell id="u6D7_SuUnIVDdeKVQkes-80" value="여행지 게시판" style="ellipse;whiteSpace=wrap;html=1;" vertex="1" parent="1">
          <mxGeometry x="1130" y="821.5" width="170" height="50" as="geometry" />
        </mxCell>
        <mxCell id="u6D7_SuUnIVDdeKVQkes-81" style="edgeStyle=orthogonalEdgeStyle;rounded=0;orthogonalLoop=1;jettySize=auto;html=1;entryX=0;entryY=0.5;entryDx=0;entryDy=0;" edge="1" parent="1" source="u6D7_SuUnIVDdeKVQkes-84" target="u6D7_SuUnIVDdeKVQkes-85">
          <mxGeometry relative="1" as="geometry" />
        </mxCell>
        <mxCell id="u6D7_SuUnIVDdeKVQkes-82" style="edgeStyle=orthogonalEdgeStyle;rounded=0;orthogonalLoop=1;jettySize=auto;html=1;entryX=0;entryY=0.5;entryDx=0;entryDy=0;" edge="1" parent="1" source="u6D7_SuUnIVDdeKVQkes-84" target="u6D7_SuUnIVDdeKVQkes-88">
          <mxGeometry relative="1" as="geometry" />
        </mxCell>
        <mxCell id="u6D7_SuUnIVDdeKVQkes-83" style="edgeStyle=orthogonalEdgeStyle;rounded=0;orthogonalLoop=1;jettySize=auto;html=1;entryX=0;entryY=0.5;entryDx=0;entryDy=0;" edge="1" parent="1" source="u6D7_SuUnIVDdeKVQkes-84" target="u6D7_SuUnIVDdeKVQkes-93">
          <mxGeometry relative="1" as="geometry" />
        </mxCell>
        <mxCell id="u6D7_SuUnIVDdeKVQkes-84" value="관리자" style="shape=umlActor;verticalLabelPosition=bottom;verticalAlign=top;html=1;outlineConnect=0;" vertex="1" parent="1">
          <mxGeometry x="100" y="660" width="30" height="60" as="geometry" />
        </mxCell>
        <mxCell id="u6D7_SuUnIVDdeKVQkes-85" value="공지사항 CRUD" style="ellipse;whiteSpace=wrap;html=1;" vertex="1" parent="1">
          <mxGeometry x="260" y="665" width="170" height="50" as="geometry" />
        </mxCell>
        <mxCell id="u6D7_SuUnIVDdeKVQkes-86" style="edgeStyle=orthogonalEdgeStyle;rounded=0;orthogonalLoop=1;jettySize=auto;html=1;entryX=0;entryY=0.5;entryDx=0;entryDy=0;" edge="1" parent="1" source="u6D7_SuUnIVDdeKVQkes-88" target="u6D7_SuUnIVDdeKVQkes-89">
          <mxGeometry relative="1" as="geometry" />
        </mxCell>
        <mxCell id="u6D7_SuUnIVDdeKVQkes-87" style="edgeStyle=orthogonalEdgeStyle;rounded=0;orthogonalLoop=1;jettySize=auto;html=1;entryX=0;entryY=0.5;entryDx=0;entryDy=0;" edge="1" parent="1" source="u6D7_SuUnIVDdeKVQkes-88" target="u6D7_SuUnIVDdeKVQkes-90">
          <mxGeometry relative="1" as="geometry" />
        </mxCell>
        <mxCell id="u6D7_SuUnIVDdeKVQkes-88" value="회원 관리" style="ellipse;whiteSpace=wrap;html=1;" vertex="1" parent="1">
          <mxGeometry x="260" y="580" width="170" height="50" as="geometry" />
        </mxCell>
        <mxCell id="u6D7_SuUnIVDdeKVQkes-89" value="회원 삭제" style="ellipse;whiteSpace=wrap;html=1;" vertex="1" parent="1">
          <mxGeometry x="530" y="580" width="170" height="50" as="geometry" />
        </mxCell>
        <mxCell id="u6D7_SuUnIVDdeKVQkes-90" value="회원 권한 변경" style="ellipse;whiteSpace=wrap;html=1;" vertex="1" parent="1">
          <mxGeometry x="530" y="665" width="170" height="50" as="geometry" />
        </mxCell>
        <mxCell id="u6D7_SuUnIVDdeKVQkes-91" style="edgeStyle=orthogonalEdgeStyle;rounded=0;orthogonalLoop=1;jettySize=auto;html=1;entryX=0;entryY=0.5;entryDx=0;entryDy=0;" edge="1" parent="1" source="u6D7_SuUnIVDdeKVQkes-93" target="u6D7_SuUnIVDdeKVQkes-94">
          <mxGeometry relative="1" as="geometry" />
        </mxCell>
        <mxCell id="u6D7_SuUnIVDdeKVQkes-92" style="edgeStyle=orthogonalEdgeStyle;rounded=0;orthogonalLoop=1;jettySize=auto;html=1;entryX=0;entryY=0.5;entryDx=0;entryDy=0;" edge="1" parent="1" source="u6D7_SuUnIVDdeKVQkes-93" target="u6D7_SuUnIVDdeKVQkes-95">
          <mxGeometry relative="1" as="geometry" />
        </mxCell>
        <mxCell id="u6D7_SuUnIVDdeKVQkes-93" value="통계(대시보드)" style="ellipse;whiteSpace=wrap;html=1;" vertex="1" parent="1">
          <mxGeometry x="260" y="750" width="170" height="50" as="geometry" />
        </mxCell>
        <mxCell id="u6D7_SuUnIVDdeKVQkes-94" value="방문 통계 조회" style="ellipse;whiteSpace=wrap;html=1;" vertex="1" parent="1">
          <mxGeometry x="530" y="750" width="170" height="50" as="geometry" />
        </mxCell>
        <mxCell id="u6D7_SuUnIVDdeKVQkes-95" value="게시글 통계 조회" style="ellipse;whiteSpace=wrap;html=1;" vertex="1" parent="1">
          <mxGeometry x="530" y="835" width="170" height="50" as="geometry" />
        </mxCell>
        <mxCell id="u6D7_SuUnIVDdeKVQkes-47" style="edgeStyle=orthogonalEdgeStyle;rounded=0;orthogonalLoop=1;jettySize=auto;html=1;entryX=0;entryY=0.5;entryDx=0;entryDy=0;" edge="1" parent="1" source="u6D7_SuUnIVDdeKVQkes-31" target="u6D7_SuUnIVDdeKVQkes-37">
          <mxGeometry relative="1" as="geometry" />
        </mxCell>
        <mxCell id="u6D7_SuUnIVDdeKVQkes-48" style="edgeStyle=orthogonalEdgeStyle;rounded=0;orthogonalLoop=1;jettySize=auto;html=1;entryX=0;entryY=0.5;entryDx=0;entryDy=0;" edge="1" parent="1" source="u6D7_SuUnIVDdeKVQkes-31" target="u6D7_SuUnIVDdeKVQkes-46">
          <mxGeometry relative="1" as="geometry" />
        </mxCell>
        <mxCell id="u6D7_SuUnIVDdeKVQkes-50" style="edgeStyle=orthogonalEdgeStyle;rounded=0;orthogonalLoop=1;jettySize=auto;html=1;entryX=0;entryY=0.5;entryDx=0;entryDy=0;" edge="1" parent="1" source="u6D7_SuUnIVDdeKVQkes-31" target="u6D7_SuUnIVDdeKVQkes-34">
          <mxGeometry relative="1" as="geometry" />
        </mxCell>
        <mxCell id="u6D7_SuUnIVDdeKVQkes-54" style="edgeStyle=orthogonalEdgeStyle;rounded=0;orthogonalLoop=1;jettySize=auto;html=1;entryX=0;entryY=0.5;entryDx=0;entryDy=0;" edge="1" parent="1" source="u6D7_SuUnIVDdeKVQkes-31" target="u6D7_SuUnIVDdeKVQkes-40">
          <mxGeometry relative="1" as="geometry" />
        </mxCell>
        <mxCell id="u6D7_SuUnIVDdeKVQkes-55" style="edgeStyle=orthogonalEdgeStyle;rounded=0;orthogonalLoop=1;jettySize=auto;html=1;entryX=0;entryY=0.5;entryDx=0;entryDy=0;" edge="1" parent="1" source="u6D7_SuUnIVDdeKVQkes-31" target="u6D7_SuUnIVDdeKVQkes-42">
          <mxGeometry relative="1" as="geometry" />
        </mxCell>
        <mxCell id="u6D7_SuUnIVDdeKVQkes-56" style="edgeStyle=orthogonalEdgeStyle;rounded=0;orthogonalLoop=1;jettySize=auto;html=1;entryX=0;entryY=0.5;entryDx=0;entryDy=0;" edge="1" parent="1" source="u6D7_SuUnIVDdeKVQkes-31" target="u6D7_SuUnIVDdeKVQkes-44">
          <mxGeometry relative="1" as="geometry" />
        </mxCell>
        <mxCell id="u6D7_SuUnIVDdeKVQkes-31" value="사용자" style="shape=umlActor;verticalLabelPosition=bottom;verticalAlign=top;html=1;outlineConnect=0;" vertex="1" parent="1">
          <mxGeometry x="967.5" y="305" width="30" height="60" as="geometry" />
        </mxCell>
        <mxCell id="u6D7_SuUnIVDdeKVQkes-32" value="&lt;b&gt;&lt;font style=&quot;font-size: 18px;&quot;&gt;마이페이지 Usecase&lt;/font&gt;&lt;/b&gt;" style="text;html=1;align=center;verticalAlign=middle;whiteSpace=wrap;rounded=0;" vertex="1" parent="1">
          <mxGeometry x="910" y="100" width="247.5" height="30" as="geometry" />
        </mxCell>
        <mxCell id="u6D7_SuUnIVDdeKVQkes-34" value="회원가입" style="ellipse;whiteSpace=wrap;html=1;" vertex="1" parent="1">
          <mxGeometry x="1167.5" y="233" width="170" height="50" as="geometry" />
        </mxCell>
        <mxCell id="u6D7_SuUnIVDdeKVQkes-35" value="회원 정보 수정" style="ellipse;whiteSpace=wrap;html=1;" vertex="1" parent="1">
          <mxGeometry x="1447.5" y="310" width="170" height="50" as="geometry" />
        </mxCell>
        <mxCell id="u6D7_SuUnIVDdeKVQkes-37" value="로그인/로그아웃" style="ellipse;whiteSpace=wrap;html=1;" vertex="1" parent="1">
          <mxGeometry x="1167.5" y="155" width="170" height="50" as="geometry" />
        </mxCell>
        <mxCell id="u6D7_SuUnIVDdeKVQkes-38" value="회원 정보 조회" style="ellipse;whiteSpace=wrap;html=1;" vertex="1" parent="1">
          <mxGeometry x="1447.5" y="233" width="170" height="50" as="geometry" />
        </mxCell>
        <mxCell id="u6D7_SuUnIVDdeKVQkes-39" value="회원 탈퇴" style="ellipse;whiteSpace=wrap;html=1;" vertex="1" parent="1">
          <mxGeometry x="1447.5" y="155" width="170" height="50" as="geometry" />
        </mxCell>
        <mxCell id="u6D7_SuUnIVDdeKVQkes-40" value="여행 코스 관리" style="ellipse;whiteSpace=wrap;html=1;" vertex="1" parent="1">
          <mxGeometry x="1167.5" y="420" width="170" height="50" as="geometry" />
        </mxCell>
        <mxCell id="u6D7_SuUnIVDdeKVQkes-42" value="작성 글 조회" style="ellipse;whiteSpace=wrap;html=1;" vertex="1" parent="1">
          <mxGeometry x="1167.5" y="498" width="170" height="50" as="geometry" />
        </mxCell>
        <mxCell id="u6D7_SuUnIVDdeKVQkes-44" value="공지사항 확인" style="ellipse;whiteSpace=wrap;html=1;" vertex="1" parent="1">
          <mxGeometry x="1167.5" y="575" width="170" height="50" as="geometry" />
        </mxCell>
        <mxCell id="u6D7_SuUnIVDdeKVQkes-51" style="edgeStyle=orthogonalEdgeStyle;rounded=0;orthogonalLoop=1;jettySize=auto;html=1;entryX=0;entryY=0.5;entryDx=0;entryDy=0;" edge="1" parent="1" source="u6D7_SuUnIVDdeKVQkes-46" target="u6D7_SuUnIVDdeKVQkes-35">
          <mxGeometry relative="1" as="geometry" />
        </mxCell>
        <mxCell id="u6D7_SuUnIVDdeKVQkes-52" style="edgeStyle=orthogonalEdgeStyle;rounded=0;orthogonalLoop=1;jettySize=auto;html=1;entryX=0;entryY=0.5;entryDx=0;entryDy=0;" edge="1" parent="1" source="u6D7_SuUnIVDdeKVQkes-46" target="u6D7_SuUnIVDdeKVQkes-38">
          <mxGeometry relative="1" as="geometry" />
        </mxCell>
        <mxCell id="u6D7_SuUnIVDdeKVQkes-53" style="edgeStyle=orthogonalEdgeStyle;rounded=0;orthogonalLoop=1;jettySize=auto;html=1;entryX=0;entryY=0.5;entryDx=0;entryDy=0;" edge="1" parent="1" source="u6D7_SuUnIVDdeKVQkes-46" target="u6D7_SuUnIVDdeKVQkes-39">
          <mxGeometry relative="1" as="geometry" />
        </mxCell>
        <mxCell id="u6D7_SuUnIVDdeKVQkes-46" value="회원 정보 관리" style="ellipse;whiteSpace=wrap;html=1;" vertex="1" parent="1">
          <mxGeometry x="1167.5" y="310" width="170" height="50" as="geometry" />
        </mxCell>
        <mxCell id="u6D7_SuUnIVDdeKVQkes-58" value="즐겨찾기 조회" style="ellipse;whiteSpace=wrap;html=1;" vertex="1" parent="1">
          <mxGeometry x="1550" y="535" width="170" height="50" as="geometry" />
        </mxCell>
        <mxCell id="u6D7_SuUnIVDdeKVQkes-110" style="edgeStyle=orthogonalEdgeStyle;rounded=0;orthogonalLoop=1;jettySize=auto;html=1;entryX=0;entryY=0.5;entryDx=0;entryDy=0;" edge="1" parent="1" source="u6D7_SuUnIVDdeKVQkes-97" target="u6D7_SuUnIVDdeKVQkes-105">
          <mxGeometry relative="1" as="geometry" />
        </mxCell>
        <mxCell id="u6D7_SuUnIVDdeKVQkes-111" style="edgeStyle=orthogonalEdgeStyle;rounded=0;orthogonalLoop=1;jettySize=auto;html=1;entryX=0;entryY=0.5;entryDx=0;entryDy=0;" edge="1" parent="1" source="u6D7_SuUnIVDdeKVQkes-97" target="u6D7_SuUnIVDdeKVQkes-106">
          <mxGeometry relative="1" as="geometry" />
        </mxCell>
        <mxCell id="u6D7_SuUnIVDdeKVQkes-139" style="edgeStyle=orthogonalEdgeStyle;rounded=0;orthogonalLoop=1;jettySize=auto;html=1;entryX=0;entryY=0.5;entryDx=0;entryDy=0;" edge="1" parent="1" source="u6D7_SuUnIVDdeKVQkes-97" target="u6D7_SuUnIVDdeKVQkes-138">
          <mxGeometry relative="1" as="geometry" />
        </mxCell>
        <mxCell id="u6D7_SuUnIVDdeKVQkes-97" value="여행코스 게시판" style="ellipse;whiteSpace=wrap;html=1;" vertex="1" parent="1">
          <mxGeometry x="1130" y="981.5" width="170" height="50" as="geometry" />
        </mxCell>
        <mxCell id="u6D7_SuUnIVDdeKVQkes-98" value="게시글 CRUD" style="ellipse;whiteSpace=wrap;html=1;" vertex="1" parent="1">
          <mxGeometry x="1400" y="821.5" width="170" height="50" as="geometry" />
        </mxCell>
        <mxCell id="u6D7_SuUnIVDdeKVQkes-100" value="" style="endArrow=block;html=1;rounded=0;endFill=0;strokeWidth=1;" edge="1" parent="1">
          <mxGeometry width="50" height="50" relative="1" as="geometry">
            <mxPoint x="115" y="650" as="sourcePoint" />
            <mxPoint x="115" y="390" as="targetPoint" />
          </mxGeometry>
        </mxCell>
        <mxCell id="u6D7_SuUnIVDdeKVQkes-102" value="게시글 즐겨찾기" style="ellipse;whiteSpace=wrap;html=1;" vertex="1" parent="1">
          <mxGeometry x="1400" y="898.5" width="170" height="50" as="geometry" />
        </mxCell>
        <mxCell id="u6D7_SuUnIVDdeKVQkes-105" value="여행 코스 가져오기" style="ellipse;whiteSpace=wrap;html=1;" vertex="1" parent="1">
          <mxGeometry x="1400" y="981" width="170" height="50" as="geometry" />
        </mxCell>
        <mxCell id="u6D7_SuUnIVDdeKVQkes-106" value="여행 코스 즐겨찾기" style="ellipse;whiteSpace=wrap;html=1;" vertex="1" parent="1">
          <mxGeometry x="1400" y="1057" width="170" height="50" as="geometry" />
        </mxCell>
        <mxCell id="u6D7_SuUnIVDdeKVQkes-115" value="&lt;b&gt;&lt;font style=&quot;font-size: 18px;&quot;&gt;여행 코스 관리 Usecase&lt;/font&gt;&lt;/b&gt;" style="text;html=1;align=center;verticalAlign=middle;whiteSpace=wrap;rounded=0;" vertex="1" parent="1">
          <mxGeometry x="60" y="981" width="247.5" height="30" as="geometry" />
        </mxCell>
        <mxCell id="u6D7_SuUnIVDdeKVQkes-131" style="edgeStyle=orthogonalEdgeStyle;rounded=0;orthogonalLoop=1;jettySize=auto;html=1;entryX=0;entryY=0.5;entryDx=0;entryDy=0;" edge="1" parent="1" source="u6D7_SuUnIVDdeKVQkes-116" target="u6D7_SuUnIVDdeKVQkes-129">
          <mxGeometry relative="1" as="geometry" />
        </mxCell>
        <mxCell id="u6D7_SuUnIVDdeKVQkes-132" style="edgeStyle=orthogonalEdgeStyle;rounded=0;orthogonalLoop=1;jettySize=auto;html=1;entryX=0;entryY=0.5;entryDx=0;entryDy=0;" edge="1" parent="1" source="u6D7_SuUnIVDdeKVQkes-116" target="u6D7_SuUnIVDdeKVQkes-122">
          <mxGeometry relative="1" as="geometry" />
        </mxCell>
        <mxCell id="u6D7_SuUnIVDdeKVQkes-133" style="edgeStyle=orthogonalEdgeStyle;rounded=0;orthogonalLoop=1;jettySize=auto;html=1;entryX=0;entryY=0.5;entryDx=0;entryDy=0;" edge="1" parent="1" source="u6D7_SuUnIVDdeKVQkes-116" target="u6D7_SuUnIVDdeKVQkes-125">
          <mxGeometry relative="1" as="geometry" />
        </mxCell>
        <mxCell id="u6D7_SuUnIVDdeKVQkes-116" value="사용자" style="shape=umlActor;verticalLabelPosition=bottom;verticalAlign=top;html=1;outlineConnect=0;" vertex="1" parent="1">
          <mxGeometry x="107.5" y="1079" width="30" height="60" as="geometry" />
        </mxCell>
        <mxCell id="u6D7_SuUnIVDdeKVQkes-135" style="edgeStyle=orthogonalEdgeStyle;rounded=0;orthogonalLoop=1;jettySize=auto;html=1;entryX=0;entryY=0.5;entryDx=0;entryDy=0;" edge="1" parent="1" source="u6D7_SuUnIVDdeKVQkes-122" target="u6D7_SuUnIVDdeKVQkes-126">
          <mxGeometry relative="1" as="geometry" />
        </mxCell>
        <mxCell id="u6D7_SuUnIVDdeKVQkes-136" style="edgeStyle=orthogonalEdgeStyle;rounded=0;orthogonalLoop=1;jettySize=auto;html=1;entryX=0;entryY=0.5;entryDx=0;entryDy=0;" edge="1" parent="1" source="u6D7_SuUnIVDdeKVQkes-122" target="u6D7_SuUnIVDdeKVQkes-127">
          <mxGeometry relative="1" as="geometry" />
        </mxCell>
        <mxCell id="u6D7_SuUnIVDdeKVQkes-137" style="edgeStyle=orthogonalEdgeStyle;rounded=0;orthogonalLoop=1;jettySize=auto;html=1;entryX=0;entryY=0.5;entryDx=0;entryDy=0;" edge="1" parent="1" source="u6D7_SuUnIVDdeKVQkes-122" target="u6D7_SuUnIVDdeKVQkes-128">
          <mxGeometry relative="1" as="geometry" />
        </mxCell>
        <mxCell id="u6D7_SuUnIVDdeKVQkes-122" value="여행 코스 작성" style="ellipse;whiteSpace=wrap;html=1;" vertex="1" parent="1">
          <mxGeometry x="267.5" y="1154" width="170" height="50" as="geometry" />
        </mxCell>
        <mxCell id="u6D7_SuUnIVDdeKVQkes-124" value="여행 코스 수정/삭제" style="ellipse;whiteSpace=wrap;html=1;" vertex="1" parent="1">
          <mxGeometry x="537.5" y="1084" width="170" height="50" as="geometry" />
        </mxCell>
        <mxCell id="u6D7_SuUnIVDdeKVQkes-125" value="날씨 조회" style="ellipse;whiteSpace=wrap;html=1;" vertex="1" parent="1">
          <mxGeometry x="267.5" y="1224" width="170" height="50" as="geometry" />
        </mxCell>
        <mxCell id="u6D7_SuUnIVDdeKVQkes-126" value="여행지 추가/삭제" style="ellipse;whiteSpace=wrap;html=1;" vertex="1" parent="1">
          <mxGeometry x="537.5" y="1154" width="170" height="50" as="geometry" />
        </mxCell>
        <mxCell id="u6D7_SuUnIVDdeKVQkes-127" value="여행지 순서 변경" style="ellipse;whiteSpace=wrap;html=1;" vertex="1" parent="1">
          <mxGeometry x="537.5" y="1227" width="170" height="50" as="geometry" />
        </mxCell>
        <mxCell id="u6D7_SuUnIVDdeKVQkes-128" value="여행 기간 수정" style="ellipse;whiteSpace=wrap;html=1;" vertex="1" parent="1">
          <mxGeometry x="537.5" y="1299" width="170" height="50" as="geometry" />
        </mxCell>
        <mxCell id="u6D7_SuUnIVDdeKVQkes-134" style="edgeStyle=orthogonalEdgeStyle;rounded=0;orthogonalLoop=1;jettySize=auto;html=1;entryX=0;entryY=0.5;entryDx=0;entryDy=0;" edge="1" parent="1" source="u6D7_SuUnIVDdeKVQkes-129" target="u6D7_SuUnIVDdeKVQkes-124">
          <mxGeometry relative="1" as="geometry" />
        </mxCell>
        <mxCell id="u6D7_SuUnIVDdeKVQkes-129" value="내 여행 코스 목록" style="ellipse;whiteSpace=wrap;html=1;" vertex="1" parent="1">
          <mxGeometry x="267.5" y="1084" width="170" height="50" as="geometry" />
        </mxCell>
        <mxCell id="u6D7_SuUnIVDdeKVQkes-138" value="내 여행 코스 등록" style="ellipse;whiteSpace=wrap;html=1;" vertex="1" parent="1">
          <mxGeometry x="1400" y="1130" width="170" height="50" as="geometry" />
        </mxCell>
        <mxCell id="u6D7_SuUnIVDdeKVQkes-142" style="edgeStyle=orthogonalEdgeStyle;rounded=0;orthogonalLoop=1;jettySize=auto;html=1;entryX=0;entryY=0.5;entryDx=0;entryDy=0;" edge="1" parent="1" source="u6D7_SuUnIVDdeKVQkes-140" target="u6D7_SuUnIVDdeKVQkes-141">
          <mxGeometry relative="1" as="geometry" />
        </mxCell>
        <mxCell id="u6D7_SuUnIVDdeKVQkes-140" value="관리자" style="shape=umlActor;verticalLabelPosition=bottom;verticalAlign=top;html=1;outlineConnect=0;" vertex="1" parent="1">
          <mxGeometry x="967.5" y="1244" width="30" height="60" as="geometry" />
        </mxCell>
        <mxCell id="u6D7_SuUnIVDdeKVQkes-141" value="게시글 삭제" style="ellipse;whiteSpace=wrap;html=1;" vertex="1" parent="1">
          <mxGeometry x="1130" y="1249" width="170" height="50" as="geometry" />
        </mxCell>
        <mxCell id="u6D7_SuUnIVDdeKVQkes-143" value="" style="endArrow=block;html=1;rounded=0;endFill=0;strokeWidth=1;" edge="1" parent="1">
          <mxGeometry width="50" height="50" relative="1" as="geometry">
            <mxPoint x="981.97" y="1224" as="sourcePoint" />
            <mxPoint x="980" y="910" as="targetPoint" />
          </mxGeometry>
        </mxCell>
      </root>
    </mxGraphModel>
  </diagram>
</mxfile>
